<svg width="78" height="95" viewBox="0 0 78 95" fill="none" xmlns="http://www.w3.org/2000/svg">
<path d="M18.709 52.1293V25.8713C18.709 23.972 19.4635 22.1505 20.8065 20.8075C22.1495 19.4645 23.971 18.71 25.8703 18.71C27.7696 18.71 29.5911 19.4645 30.9341 20.8075C32.2771 22.1505 33.0316 23.972 33.0316 25.8713V52.1293" stroke="#F8F8F8" stroke-width="4" stroke-linecap="round" stroke-linejoin="round"/>
<path d="M75.9993 49.7417V65.2578C75.9993 80.4183 63.7081 92.7094 48.5477 92.7094H46.1606C31.0001 92.7094 18.709 80.4183 18.709 65.2578V49.7417" stroke="#F8F8F8" stroke-width="4" stroke-linecap="round" stroke-linejoin="round"/>
<path d="M33.0332 59.2906V47.3551C33.0332 45.4558 33.7877 43.6343 35.1307 42.2913C36.4737 40.9483 38.2952 40.1938 40.1945 40.1938C42.0938 40.1938 43.9153 40.9483 45.2583 42.2913C46.6013 43.6343 47.3558 45.4558 47.3558 47.3551M47.3558 47.3551V59.2906M47.3558 47.3551C47.3558 45.4558 48.1103 43.6343 49.4533 42.2913C50.7963 40.9483 52.6178 40.1938 54.5171 40.1938C56.4164 40.1938 58.2379 40.9483 59.5809 42.2913C60.9239 43.6343 61.6784 45.4558 61.6784 47.3551M61.6784 47.3551V59.2906M61.6784 47.3551C61.6784 45.4558 62.4329 43.6343 63.7759 42.2913C65.1189 40.9483 66.9404 40.1938 68.8397 40.1938C70.7389 40.1938 72.5604 40.9483 73.9034 42.2913C75.2465 43.6343 76.0009 45.4558 76.0009 47.3551V59.2906" stroke="#F8F8F8" stroke-width="4" stroke-linecap="round" stroke-linejoin="round"/>
<path d="M49.742 25.871C49.7476 20.7611 48.1079 15.7852 45.0656 11.6797C42.8479 8.67563 39.9555 6.23458 36.6214 4.55325C33.2874 2.87193 29.605 1.99735 25.871 2.00001C22.1366 1.99698 18.4537 2.87137 15.1192 4.55271C11.7847 6.23406 8.89193 8.67531 6.67395 11.6797C3.63269 15.7856 1.99389 20.7614 2.00002 25.871" stroke="#F8F8F8" stroke-width="4" stroke-linecap="round"/>
</svg>
